<?xml version="1.0" encoding="UTF-8"?>
<!DOCTYPE svg PUBLIC "-//W3C//DTD SVG 1.1//EN" "http://www.w3.org/Graphics/SVG/1.1/DTD/svg11.dtd">
<svg xmlns="http://www.w3.org/2000/svg" version="1.1" width="394px" height="469px" style="shape-rendering:geometricPrecision; text-rendering:geometricPrecision; image-rendering:optimizeQuality; fill-rule:evenodd; clip-rule:evenodd" xmlns:xlink="http://www.w3.org/1999/xlink">
<g><path style="opacity:0.971" fill="#7630af" d="M 311.5,53.5 C 311.167,54.8333 310.833,56.1667 310.5,57.5C 306.833,62.1667 303.167,66.8333 299.5,71.5C 295.319,71.7642 291.319,72.7642 287.5,74.5C 285.547,73.8444 283.547,73.5111 281.5,73.5C 278.947,71.4163 275.947,70.083 272.5,69.5C 271.391,69.4431 270.391,69.1098 269.5,68.5C 266.503,65.5035 262.836,63.8369 258.5,63.5C 255.374,61.0103 251.708,59.677 247.5,59.5C 245.485,58.0762 243.152,57.4095 240.5,57.5C 240.167,57.5 239.833,57.5 239.5,57.5C 239.389,56.8826 239.056,56.3826 238.5,56C 233.773,54.9371 229.107,53.7704 224.5,52.5C 206.671,51.338 188.671,51.1713 170.5,52C 166.132,52.2933 162.132,53.46 158.5,55.5C 158.167,55.5 157.833,55.5 157.5,55.5C 153.447,56.0127 149.447,56.846 145.5,58C 144.244,58.4169 143.577,59.2502 143.5,60.5C 143.167,60.5 142.833,60.5 142.5,60.5C 136.344,61.7662 130.344,63.5995 124.5,66C 116.749,70.5217 108.416,73.355 99.5,74.5C 97.8333,73.8333 96.1667,73.1667 94.5,72.5C 92.205,69.7029 89.705,67.0362 87,64.5C 85.2494,62.5101 84.2494,60.1768 84,57.5C 83.2917,56.6195 82.4584,55.9528 81.5,55.5C 81.2114,52.3508 81.7114,49.3508 83,46.5C 89.5571,39.6071 96.3904,33.1071 103.5,27C 108.032,23.8187 112.699,20.8187 117.5,18C 125.925,14.3963 134.591,11.7296 143.5,10C 176.467,7.08261 209.467,6.74927 242.5,9C 257.604,10.4183 271.604,15.0849 284.5,23C 293.96,30.4593 302.794,38.626 311,47.5C 311.495,49.4727 311.662,51.4727 311.5,53.5 Z"/></g>
<g><path style="opacity:1" fill="#632893" d="M 224.5,52.5 C 207.497,52.3334 190.497,52.5001 173.5,53C 170.635,53.1829 167.969,53.6829 165.5,54.5C 163.194,54.9926 160.861,55.3259 158.5,55.5C 162.132,53.46 166.132,52.2933 170.5,52C 188.671,51.1713 206.671,51.338 224.5,52.5 Z"/></g>
<g><path style="opacity:1" fill="#3d185a" d="M 224.5,52.5 C 229.107,53.7704 233.773,54.9371 238.5,56C 239.056,56.3826 239.389,56.8826 239.5,57.5C 232.063,55.4605 224.397,54.2938 216.5,54C 199.487,53.3099 182.487,53.4765 165.5,54.5C 167.969,53.6829 170.635,53.1829 173.5,53C 190.497,52.5001 207.497,52.3334 224.5,52.5 Z"/></g>
<g><path style="opacity:1" fill="#000001" d="M 239.5,57.5 C 239.833,57.5 240.167,57.5 240.5,57.5C 242.515,58.9238 244.848,59.5905 247.5,59.5C 250.626,61.9897 254.292,63.323 258.5,63.5C 261.74,65.951 265.407,67.6176 269.5,68.5C 270.391,69.1098 271.391,69.4431 272.5,69.5C 275.053,71.5837 278.053,72.917 281.5,73.5C 283.679,74.9256 286.179,75.5922 289,75.5C 292.541,74.975 296.041,74.3083 299.5,73.5C 302.215,75.9018 304.715,78.5685 307,81.5C 310.621,88.9082 314.121,96.2416 317.5,103.5C 314.78,105.917 312.78,108.917 311.5,112.5C 309.75,115.133 308.75,118.133 308.5,121.5C 309.142,127.038 310.142,132.371 311.5,137.5C 314.638,150.013 317.305,162.679 319.5,175.5C 320.615,179.947 322.948,183.613 326.5,186.5C 328.075,190.078 330.075,193.411 332.5,196.5C 326.166,199.665 320.166,203.331 314.5,207.5C 311.673,208.958 308.673,209.958 305.5,210.5C 305.863,190.163 306.03,169.829 306,149.5C 305.605,145.981 304.605,142.648 303,139.5C 301.883,137.876 300.383,136.876 298.5,136.5C 264.976,154.621 229.642,168.121 192.5,177C 190.421,177.808 188.421,177.641 186.5,176.5C 194.567,168.022 202.401,159.356 210,150.5C 210.688,149.668 210.521,149.002 209.5,148.5C 171.971,170.566 131.638,184.899 88.5,191.5C 88.1005,197.829 87.7671,204.162 87.5,210.5C 84.2318,210.093 81.2318,209.093 78.5,207.5C 72.5,203.833 66.5,200.167 60.5,196.5C 61.1098,195.609 61.4431,194.609 61.5,193.5C 65.2624,190.071 68.2624,186.071 70.5,181.5C 72.7593,180.656 73.7593,178.989 73.5,176.5C 74.9029,172.345 75.9029,168.012 76.5,163.5C 77.9891,159.764 78.6558,155.764 78.5,151.5C 79.9034,148.091 80.5701,144.425 80.5,140.5C 83.9411,131.82 84.7744,122.82 83,113.5C 81.0539,110.58 78.8872,107.913 76.5,105.5C 76.5,104.833 76.5,104.167 76.5,103.5C 78.9332,95.3762 82.4332,87.7095 87,80.5C 89.2845,77.5685 91.7845,74.9018 94.5,72.5C 96.1667,73.1667 97.8333,73.8333 99.5,74.5C 102.304,75.6378 105.304,75.8045 108.5,75C 120.088,70.4265 131.421,65.5932 142.5,60.5C 142.833,60.5 143.167,60.5 143.5,60.5C 148.595,59.414 153.262,57.7474 157.5,55.5C 157.833,55.5 158.167,55.5 158.5,55.5C 160.861,55.3259 163.194,54.9926 165.5,54.5C 182.487,53.4765 199.487,53.3099 216.5,54C 224.397,54.2938 232.063,55.4605 239.5,57.5 Z"/></g>
<g><path style="opacity:0.953" fill="#d09bfa" d="M 81.5,55.5 C 82.4584,55.9528 83.2917,56.6195 84,57.5C 84.2494,60.1768 85.2494,62.5101 87,64.5C 89.705,67.0362 92.205,69.7029 94.5,72.5C 91.7845,74.9018 89.2845,77.5685 87,80.5C 82.4332,87.7095 78.9332,95.3762 76.5,103.5C 70.7689,99.1033 64.7689,95.1033 58.5,91.5C 60.9385,82.7796 64.4385,74.4463 69,66.5C 72.9576,62.4628 77.1242,58.7962 81.5,55.5 Z"/></g>
<g><path style="opacity:0.22" fill="#33263c" d="M 311.5,53.5 C 312.401,54.2905 313.068,55.2905 313.5,56.5C 312.791,57.404 311.791,57.7373 310.5,57.5C 310.833,56.1667 311.167,54.8333 311.5,53.5 Z"/></g>
<g><path style="opacity:1" fill="#361650" d="M 240.5,57.5 C 243.152,57.4095 245.485,58.0762 247.5,59.5C 244.848,59.5905 242.515,58.9238 240.5,57.5 Z"/></g>
<g><path style="opacity:1" fill="#401a5f" d="M 157.5,55.5 C 153.262,57.7474 148.595,59.414 143.5,60.5C 143.577,59.2502 144.244,58.4169 145.5,58C 149.447,56.846 153.447,56.0127 157.5,55.5 Z"/></g>
<g><path style="opacity:0.97" fill="#ce9af8" d="M 313.5,56.5 C 323.442,64.5531 330.108,74.8864 333.5,87.5C 332.962,89.1172 332.629,90.7839 332.5,92.5C 326.967,95.4338 321.967,99.1004 317.5,103.5C 314.121,96.2416 310.621,88.9082 307,81.5C 304.715,78.5685 302.215,75.9018 299.5,73.5C 299.5,72.8333 299.5,72.1667 299.5,71.5C 303.167,66.8333 306.833,62.1667 310.5,57.5C 311.791,57.7373 312.791,57.404 313.5,56.5 Z"/></g>
<g><path style="opacity:1" fill="#361650" d="M 247.5,59.5 C 251.708,59.677 255.374,61.0103 258.5,63.5C 254.292,63.323 250.626,61.9897 247.5,59.5 Z"/></g>
<g><path style="opacity:1" fill="#3e195c" d="M 258.5,63.5 C 262.836,63.8369 266.503,65.5035 269.5,68.5C 265.407,67.6176 261.74,65.951 258.5,63.5 Z"/></g>
<g><path style="opacity:1" fill="#451c67" d="M 142.5,60.5 C 131.421,65.5932 120.088,70.4265 108.5,75C 105.304,75.8045 102.304,75.6378 99.5,74.5C 108.416,73.355 116.749,70.5217 124.5,66C 130.344,63.5995 136.344,61.7662 142.5,60.5 Z"/></g>
<g><path style="opacity:1" fill="#2c1342" d="M 272.5,69.5 C 275.947,70.083 278.947,71.4163 281.5,73.5C 278.053,72.917 275.053,71.5837 272.5,69.5 Z"/></g>
<g><path style="opacity:1" fill="#5a2684" d="M 299.5,71.5 C 299.5,72.1667 299.5,72.8333 299.5,73.5C 296.041,74.3083 292.541,74.975 289,75.5C 286.179,75.5922 283.679,74.9256 281.5,73.5C 283.547,73.5111 285.547,73.8444 287.5,74.5C 291.319,72.7642 295.319,71.7642 299.5,71.5 Z"/></g>
<g><path style="opacity:0.51" fill="#483555" d="M 333.5,87.5 C 334.674,88.5137 335.34,89.847 335.5,91.5C 334.391,91.5569 333.391,91.8902 332.5,92.5C 332.629,90.7839 332.962,89.1172 333.5,87.5 Z"/></g>
<g><path style="opacity:0.967" fill="#66018d" d="M 58.5,91.5 C 64.7689,95.1033 70.7689,99.1033 76.5,103.5C 76.5,104.167 76.5,104.833 76.5,105.5C 76.6343,108.768 78.1343,111.102 81,112.5C 82.9085,121.862 82.7419,131.195 80.5,140.5C 80.5701,144.425 79.9034,148.091 78.5,151.5C 77.0109,155.236 76.3442,159.236 76.5,163.5C 75.9029,168.012 74.9029,172.345 73.5,176.5C 72.1103,177.899 71.1103,179.566 70.5,181.5C 66.7376,184.929 63.7376,188.929 61.5,193.5C 61.4431,194.609 61.1098,195.609 60.5,196.5C 55.4419,201.618 51.1086,207.285 47.5,213.5C 45.4559,212.969 43.7893,211.802 42.5,210C 38.2381,209.083 34.2381,209.583 30.5,211.5C 31.2906,208.885 31.9573,206.218 32.5,203.5C 34.0933,200.305 35.0933,196.805 35.5,193C 35.1639,191.97 34.4972,191.47 33.5,191.5C 39.5253,162.36 45.0253,133.026 50,103.5C 51.0764,99.4413 52.243,95.4413 53.5,91.5C 55.1667,91.5 56.8333,91.5 58.5,91.5 Z"/></g>
<g><path style="opacity:0.962" fill="#65018d" d="M 335.5,91.5 C 337.144,91.2865 338.644,91.6198 340,92.5C 341.202,95.7735 342.202,99.1069 343,102.5C 349.951,138.547 356.784,174.547 363.5,210.5C 359.289,208.922 354.956,208.422 350.5,209C 348.93,210.397 347.596,211.897 346.5,213.5C 345.833,213.167 345.167,212.833 344.5,212.5C 341.212,207.214 337.546,202.214 333.5,197.5C 333.5,196.833 333.167,196.5 332.5,196.5C 330.075,193.411 328.075,190.078 326.5,186.5C 324.545,182.555 322.212,178.888 319.5,175.5C 317.305,162.679 314.638,150.013 311.5,137.5C 310.37,129.153 310.37,120.819 311.5,112.5C 312.78,108.917 314.78,105.917 317.5,103.5C 321.967,99.1004 326.967,95.4338 332.5,92.5C 333.391,91.8902 334.391,91.5569 335.5,91.5 Z"/></g>
<g><path style="opacity:1" fill="#42005c" d="M 76.5,105.5 C 78.8872,107.913 81.0539,110.58 83,113.5C 84.7744,122.82 83.9411,131.82 80.5,140.5C 82.7419,131.195 82.9085,121.862 81,112.5C 78.1343,111.102 76.6343,108.768 76.5,105.5 Z"/></g>
<g><path style="opacity:1" fill="#38014f" d="M 311.5,112.5 C 310.37,120.819 310.37,129.153 311.5,137.5C 310.142,132.371 309.142,127.038 308.5,121.5C 308.75,118.133 309.75,115.133 311.5,112.5 Z"/></g>
<g><path style="opacity:1" fill="#d0d0d0" d="M 305.5,210.5 C 305.167,210.5 304.833,210.5 304.5,210.5C 301.834,210.933 299.168,211.433 296.5,212C 295.944,212.383 295.611,212.883 295.5,213.5C 293.345,213.372 291.345,213.872 289.5,215C 288.771,217.058 287.771,218.891 286.5,220.5C 286.33,219.178 286.663,218.011 287.5,217C 286.5,216.833 285.5,216.667 284.5,216.5C 272.597,218.897 260.597,220.563 248.5,221.5C 248.737,222.791 248.404,223.791 247.5,224.5C 246.486,223.235 244.986,222.569 243,222.5C 241.293,222.508 239.793,222.842 238.5,223.5C 229.306,223.561 220.306,224.228 211.5,225.5C 185.25,225.481 159.084,224.148 133,221.5C 132.098,221.743 131.265,222.077 130.5,222.5C 130.53,221.503 130.03,220.836 129,220.5C 126.165,219.767 123.332,219.1 120.5,218.5C 115.385,216.75 110.051,215.416 104.5,214.5C 98.6447,213.929 92.978,212.596 87.5,210.5C 87.7671,204.162 88.1005,197.829 88.5,191.5C 131.638,184.899 171.971,170.566 209.5,148.5C 210.521,149.002 210.688,149.668 210,150.5C 202.401,159.356 194.567,168.022 186.5,176.5C 188.421,177.641 190.421,177.808 192.5,177C 229.642,168.121 264.976,154.621 298.5,136.5C 300.383,136.876 301.883,137.876 303,139.5C 304.605,142.648 305.605,145.981 306,149.5C 306.03,169.829 305.863,190.163 305.5,210.5 Z"/></g>
<g><path style="opacity:1" fill="#35014a" d="M 78.5,151.5 C 78.6558,155.764 77.9891,159.764 76.5,163.5C 76.3442,159.236 77.0109,155.236 78.5,151.5 Z"/></g>
<g><path style="opacity:1" fill="#42005d" d="M 319.5,175.5 C 322.212,178.888 324.545,182.555 326.5,186.5C 322.948,183.613 320.615,179.947 319.5,175.5 Z"/></g>
<g><path style="opacity:1" fill="#2f0342" d="M 73.5,176.5 C 73.7593,178.989 72.7593,180.656 70.5,181.5C 71.1103,179.566 72.1103,177.899 73.5,176.5 Z"/></g>
<g><path style="opacity:1" fill="#35004a" d="M 70.5,181.5 C 68.2624,186.071 65.2624,190.071 61.5,193.5C 63.7376,188.929 66.7376,184.929 70.5,181.5 Z"/></g>
<g><path style="opacity:0.625" fill="#010001" d="M 33.5,191.5 C 33.4955,195.534 33.1621,199.534 32.5,203.5C 31.9573,206.218 31.2906,208.885 30.5,211.5C 29.391,211.557 28.391,211.89 27.5,212.5C 24.4682,212.505 21.4682,212.838 18.5,213.5C 16.6814,213.658 15.3481,212.991 14.5,211.5C 20.18,204.155 26.5133,197.488 33.5,191.5 Z"/></g>
<g><path style="opacity:1" fill="#75558c" d="M 60.5,196.5 C 66.5,200.167 72.5,203.833 78.5,207.5C 77.5251,209.193 76.1918,210.693 74.5,212C 69.5648,214.606 64.8981,217.606 60.5,221C 57.4642,223.006 54.1309,223.84 50.5,223.5C 50.8333,226.167 51.1667,228.833 51.5,231.5C 50.0752,226.863 48.7419,222.196 47.5,217.5C 47.5,216.167 47.5,214.833 47.5,213.5C 51.1086,207.285 55.4419,201.618 60.5,196.5 Z"/></g>
<g><path style="opacity:1" fill="#75568d" d="M 333.5,197.5 C 337.546,202.214 341.212,207.214 344.5,212.5C 344.116,217.01 343.449,221.343 342.5,225.5C 339.908,223.823 336.908,222.657 333.5,222C 327.844,217.504 321.844,213.504 315.5,210C 314.748,209.329 314.414,208.496 314.5,207.5C 317.673,206.83 320.673,205.664 323.5,204C 327.069,202.058 330.402,199.892 333.5,197.5 Z"/></g>
<g><path style="opacity:1" fill="#3b0052" d="M 33.5,191.5 C 34.4972,191.47 35.1639,191.97 35.5,193C 35.0933,196.805 34.0933,200.305 32.5,203.5C 33.1621,199.534 33.4955,195.534 33.5,191.5 Z"/></g>
<g><path style="opacity:1" fill="#4d395c" d="M 332.5,196.5 C 333.167,196.5 333.5,196.833 333.5,197.5C 330.402,199.892 327.069,202.058 323.5,204C 320.673,205.664 317.673,206.83 314.5,207.5C 320.166,203.331 326.166,199.665 332.5,196.5 Z"/></g>
<g><path style="opacity:1" fill="#33164c" d="M 78.5,207.5 C 81.2318,209.093 84.2318,210.093 87.5,210.5C 92.978,212.596 98.6447,213.929 104.5,214.5C 105.842,215.793 107.509,216.626 109.5,217C 113.17,217.548 116.837,218.048 120.5,218.5C 123.332,219.1 126.165,219.767 129,220.5C 130.03,220.836 130.53,221.503 130.5,222.5C 129.115,223.574 127.949,224.907 127,226.5C 118.057,243.659 108.89,260.659 99.5,277.5C 98.5416,277.953 97.7083,278.619 97,279.5C 96.0789,282.336 94.9123,285.002 93.5,287.5C 88.5062,296.121 83.5062,304.788 78.5,313.5C 74.8988,312.366 71.5655,310.699 68.5,308.5C 69.8415,302.229 69.1748,296.229 66.5,290.5C 65.9572,283.751 64.2906,277.418 61.5,271.5C 59.0607,257.979 55.7274,244.645 51.5,231.5C 51.1667,228.833 50.8333,226.167 50.5,223.5C 54.1309,223.84 57.4642,223.006 60.5,221C 64.8981,217.606 69.5648,214.606 74.5,212C 76.1918,210.693 77.5251,209.193 78.5,207.5 Z"/></g>
<g><path style="opacity:1" fill="#33164c" d="M 314.5,207.5 C 314.414,208.496 314.748,209.329 315.5,210C 321.844,213.504 327.844,217.504 333.5,222C 336.908,222.657 339.908,223.823 342.5,225.5C 336.399,247.536 330.733,269.536 325.5,291.5C 323.883,296.916 323.216,302.583 323.5,308.5C 326.059,308.198 328.393,308.532 330.5,309.5C 327.482,309.335 324.482,309.502 321.5,310C 310.846,317.994 299.179,323.827 286.5,327.5C 281.817,328.837 277.15,330.17 272.5,331.5C 265.01,333.336 257.677,335.336 250.5,337.5C 249.833,337.5 249.167,337.5 248.5,337.5C 244.456,336.958 240.789,337.791 237.5,340C 233.179,340.499 228.846,340.666 224.5,340.5C 224.5,339.833 224.5,339.167 224.5,338.5C 226.558,336.073 228.391,333.407 230,330.5C 233.819,320.865 238.153,311.532 243,302.5C 246.673,298.011 249.34,293.011 251,287.5C 257.112,276.939 262.945,266.273 268.5,255.5C 269.376,255.631 270.043,255.298 270.5,254.5C 271.705,251.55 272.705,248.55 273.5,245.5C 277.56,237.047 281.894,228.713 286.5,220.5C 287.771,218.891 288.771,217.058 289.5,215C 291.345,213.872 293.345,213.372 295.5,213.5C 298.811,213.117 301.811,212.117 304.5,210.5C 304.833,210.5 305.167,210.5 305.5,210.5C 308.673,209.958 311.673,208.958 314.5,207.5 Z"/></g>
<g><path style="opacity:0.994" fill="#d19cfc" d="M 47.5,213.5 C 47.5,214.833 47.5,216.167 47.5,217.5C 47.8583,221.509 48.3583,225.509 49,229.5C 52.8644,243.709 57.0311,257.709 61.5,271.5C 64.2906,277.418 65.9572,283.751 66.5,290.5C 66.8333,295.833 67.1667,301.167 67.5,306.5C 60.8689,307.331 54.2022,307.664 47.5,307.5C 47.3477,299.462 46.681,291.462 45.5,283.5C 43.2379,274.596 41.4046,265.596 40,256.5C 34.3983,243.575 29.2317,230.575 24.5,217.5C 25.0577,216.21 26.0577,215.377 27.5,215C 26.4019,214.23 26.4019,213.397 27.5,212.5C 28.391,211.89 29.391,211.557 30.5,211.5C 34.2381,209.583 38.2381,209.083 42.5,210C 43.7893,211.802 45.4559,212.969 47.5,213.5 Z"/></g>
<g><path style="opacity:1" fill="#7d6e8a" d="M 304.5,210.5 C 301.811,212.117 298.811,213.117 295.5,213.5C 295.611,212.883 295.944,212.383 296.5,212C 299.168,211.433 301.834,210.933 304.5,210.5 Z"/></g>
<g><path style="opacity:0.995" fill="#d19cfc" d="M 363.5,210.5 C 365.555,212.555 367.221,214.888 368.5,217.5C 367.065,220.487 366.065,223.654 365.5,227C 364.991,228.169 364.158,229.002 363,229.5C 362.152,235.081 360.319,240.248 357.5,245C 355.345,255.111 352.512,264.944 349,274.5C 347.947,285.94 346.447,297.274 344.5,308.5C 337.814,308.473 331.148,308.139 324.5,307.5C 324.505,303.466 324.838,299.466 325.5,295.5C 332.731,274.26 338.897,252.594 344,230.5C 344.121,224.676 344.954,219.01 346.5,213.5C 347.596,211.897 348.93,210.397 350.5,209C 354.956,208.422 359.289,208.922 363.5,210.5 Z"/></g>
<g><path style="opacity:1" fill="#eedefc" d="M 286.5,220.5 C 281.894,228.713 277.56,237.047 273.5,245.5C 271.341,248.484 269.675,251.817 268.5,255.5C 262.945,266.273 257.112,276.939 251,287.5C 249.34,293.011 246.673,298.011 243,302.5C 238.153,311.532 233.819,320.865 230,330.5C 228.391,333.407 226.558,336.073 224.5,338.5C 223.733,339.172 223.066,340.005 222.5,341C 210.505,341.5 198.505,341.667 186.5,341.5C 189.325,334.516 192.659,327.849 196.5,321.5C 199.415,319.349 201.082,316.349 201.5,312.5C 201.5,311.833 201.833,311.5 202.5,311.5C 204.204,308.744 205.537,305.744 206.5,302.5C 208.967,300.255 210.967,297.588 212.5,294.5C 214.122,290.925 215.456,287.259 216.5,283.5C 218.771,281.388 220.104,278.721 220.5,275.5C 221.746,271.336 223.746,267.669 226.5,264.5C 230.863,260.117 233.53,254.783 234.5,248.5C 239.755,243.27 243.088,236.936 244.5,229.5C 244.833,228.833 245.167,228.167 245.5,227.5C 246.906,227.027 247.573,226.027 247.5,224.5C 248.404,223.791 248.737,222.791 248.5,221.5C 260.597,220.563 272.597,218.897 284.5,216.5C 285.5,216.667 286.5,216.833 287.5,217C 286.663,218.011 286.33,219.178 286.5,220.5 Z"/></g>
<g><path style="opacity:1" fill="#867892" d="M 104.5,214.5 C 110.051,215.416 115.385,216.75 120.5,218.5C 116.837,218.048 113.17,217.548 109.5,217C 107.509,216.626 105.842,215.793 104.5,214.5 Z"/></g>
<g><path style="opacity:0.955" fill="#9d75bd" d="M 24.5,217.5 C 29.2317,230.575 34.3983,243.575 40,256.5C 41.4046,265.596 43.2379,274.596 45.5,283.5C 46.681,291.462 47.3477,299.462 47.5,307.5C 40.6524,307.884 34.6524,305.884 29.5,301.5C 28.6143,300.675 28.281,299.675 28.5,298.5C 25.3935,298.826 23.0602,297.659 21.5,295C 22.0814,294.107 22.4148,293.107 22.5,292C 21.1768,286.885 20.1768,281.718 19.5,276.5C 17.6203,276.229 16.287,276.896 15.5,278.5C 15.1667,278.5 14.8333,278.5 14.5,278.5C 13.3215,270.457 11.8215,262.457 10,254.5C 8.27793,248.472 8.27793,242.472 10,236.5C 15.1599,230.205 19.9933,223.872 24.5,217.5 Z"/></g>
<g><path style="opacity:0.927" fill="#9d75bd" d="M 368.5,217.5 C 373.112,223.921 377.945,230.254 383,236.5C 384.712,242.794 384.712,249.128 383,255.5C 380.644,269.611 377.144,283.445 372.5,297C 370.333,301.833 366.833,305.333 362,307.5C 359.276,308.687 356.443,309.353 353.5,309.5C 350.609,308.597 347.609,308.264 344.5,308.5C 346.447,297.274 347.947,285.94 349,274.5C 352.512,264.944 355.345,255.111 357.5,245C 360.319,240.248 362.152,235.081 363,229.5C 364.158,229.002 364.991,228.169 365.5,227C 366.065,223.654 367.065,220.487 368.5,217.5 Z"/></g>
<g><path style="opacity:1" fill="#efdffd" d="M 211.5,225.5 C 208.752,228.732 206.752,232.398 205.5,236.5C 201.039,242.654 197.372,249.321 194.5,256.5C 179.79,280.901 165.79,305.901 152.5,331.5C 150.412,333.336 149.079,335.669 148.5,338.5C 131.975,335.931 115.975,331.598 100.5,325.5C 100.167,325.5 99.8333,325.5 99.5,325.5C 97.6192,322.871 94.9526,321.537 91.5,321.5C 89.2515,318.607 86.2515,316.94 82.5,316.5C 80.368,316.446 79.0347,315.446 78.5,313.5C 83.5062,304.788 88.5062,296.121 93.5,287.5C 94.8699,287.144 95.8699,286.31 96.5,285C 97.222,282.323 98.222,279.823 99.5,277.5C 108.89,260.659 118.057,243.659 127,226.5C 127.949,224.907 129.115,223.574 130.5,222.5C 131.265,222.077 132.098,221.743 133,221.5C 159.084,224.148 185.25,225.481 211.5,225.5 Z"/></g>
<g><path style="opacity:1" fill="#766187" d="M 238.5,223.5 C 239.793,222.842 241.293,222.508 243,222.5C 244.986,222.569 246.486,223.235 247.5,224.5C 247.573,226.027 246.906,227.027 245.5,227.5C 245.539,226.417 245.873,225.417 246.5,224.5C 243.914,223.52 241.247,223.187 238.5,223.5 Z"/></g>
<g><path style="opacity:1" fill="#34184d" d="M 238.5,223.5 C 241.247,223.187 243.914,223.52 246.5,224.5C 245.873,225.417 245.539,226.417 245.5,227.5C 245.167,228.167 244.833,228.833 244.5,229.5C 240.406,235.351 237.073,241.685 234.5,248.5C 231.326,253.516 228.659,258.849 226.5,264.5C 223.746,267.669 221.746,271.336 220.5,275.5C 218.229,277.612 216.896,280.279 216.5,283.5C 212.799,289.574 209.465,295.908 206.5,302.5C 203.835,304.835 202.502,307.835 202.5,311.5C 201.833,311.5 201.5,311.833 201.5,312.5C 199.076,315.008 197.41,318.008 196.5,321.5C 192.659,327.849 189.325,334.516 186.5,341.5C 176.794,341.755 167.127,341.421 157.5,340.5C 156.216,338.386 154.216,337.386 151.5,337.5C 151.517,335.435 151.85,333.435 152.5,331.5C 165.79,305.901 179.79,280.901 194.5,256.5C 195.15,256.196 195.817,255.863 196.5,255.5C 198.044,251.656 200.044,248.156 202.5,245C 203.803,242.256 204.803,239.423 205.5,236.5C 206.752,232.398 208.752,228.732 211.5,225.5C 220.306,224.228 229.306,223.561 238.5,223.5 Z"/></g>
<g><path style="opacity:1" fill="#ad98bf" d="M 244.5,229.5 C 243.088,236.936 239.755,243.27 234.5,248.5C 237.073,241.685 240.406,235.351 244.5,229.5 Z"/></g>
<g><path style="opacity:1" fill="#634979" d="M 205.5,236.5 C 204.803,239.423 203.803,242.256 202.5,245C 200.044,248.156 198.044,251.656 196.5,255.5C 195.817,255.863 195.15,256.196 194.5,256.5C 197.372,249.321 201.039,242.654 205.5,236.5 Z"/></g>
<g><path style="opacity:1" fill="#6b5180" d="M 273.5,245.5 C 272.705,248.55 271.705,251.55 270.5,254.5C 270.043,255.298 269.376,255.631 268.5,255.5C 269.675,251.817 271.341,248.484 273.5,245.5 Z"/></g>
<g><path style="opacity:1" fill="#ad7dd3" d="M 47.5,217.5 C 48.7419,222.196 50.0752,226.863 51.5,231.5C 55.7274,244.645 59.0607,257.979 61.5,271.5C 57.0311,257.709 52.8644,243.709 49,229.5C 48.3583,225.509 47.8583,221.509 47.5,217.5 Z"/></g>
<g><path style="opacity:1" fill="#b5a1c7" d="M 234.5,248.5 C 233.53,254.783 230.863,260.117 226.5,264.5C 228.659,258.849 231.326,253.516 234.5,248.5 Z"/></g>
<g><path style="opacity:1" fill="#a779cd" d="M 344.5,212.5 C 345.167,212.833 345.833,213.167 346.5,213.5C 344.954,219.01 344.121,224.676 344,230.5C 338.897,252.594 332.731,274.26 325.5,295.5C 325.5,294.167 325.5,292.833 325.5,291.5C 330.733,269.536 336.399,247.536 342.5,225.5C 343.449,221.343 344.116,217.01 344.5,212.5 Z"/></g>
<g><path style="opacity:0.789" fill="#010101" d="M 14.5,278.5 C 14.8333,278.5 15.1667,278.5 15.5,278.5C 16.4972,278.47 17.1639,278.97 17.5,280C 17.9586,282.355 18.7919,284.521 20,286.5C 21.6615,290.108 21.9948,293.775 21,297.5C 24.253,299.504 27.0863,302.004 29.5,305C 31.6504,306.411 33.9837,307.245 36.5,307.5C 40.5874,309.064 44.9207,310.064 49.5,310.5C 50.8333,310.5 52.1667,310.5 53.5,310.5C 58.3047,309.94 62.9714,309.273 67.5,308.5C 67.8333,308.5 68.1667,308.5 68.5,308.5C 71.5655,310.699 74.8988,312.366 78.5,313.5C 79.0347,315.446 80.368,316.446 82.5,316.5C 84.7158,319.444 87.7158,321.111 91.5,321.5C 93.6123,323.771 96.279,325.104 99.5,325.5C 99.8333,325.5 100.167,325.5 100.5,325.5C 100.09,346.318 102.923,366.652 109,386.5C 111.755,393.02 115.255,399.02 119.5,404.5C 119.5,405.167 119.5,405.833 119.5,406.5C 109.732,402.232 101.565,395.898 95,387.5C 94.3333,388.5 94.3333,389.5 95,390.5C 97.6833,393.016 100.183,395.683 102.5,398.5C 100.877,399.476 99.5433,398.976 98.5,397C 95.7679,396.587 93.1013,395.92 90.5,395C 82.5249,388.528 76.3582,380.695 72,371.5C 71.3333,370.167 70.6667,370.167 70,371.5C 66.7685,366.159 64.1019,360.492 62,354.5C 58.1844,341.903 54.6844,329.236 51.5,316.5C 49.4727,316.338 47.4727,316.505 45.5,317C 36.6754,321.306 27.3421,323.806 17.5,324.5C 11.8097,324.039 11.4764,323.205 16.5,322C 11.8333,321.667 7.16667,321.333 2.5,321C 1.57203,320.612 0.905365,319.945 0.5,319C 3.32726,316.339 5.99393,313.505 8.5,310.5C 7.16667,309.833 5.83333,309.167 4.5,308.5C 6.81675,305.683 9.31675,303.016 12,300.5C 10.8991,298.208 11.7324,296.708 14.5,296C 9.56005,296.326 4.56005,296.492 -0.5,296.5C -0.5,295.833 -0.5,295.167 -0.5,294.5C 5.23314,289.77 10.2331,284.436 14.5,278.5 Z"/></g>
<g><path style="opacity:1" fill="#9882ac" d="M 220.5,275.5 C 220.104,278.721 218.771,281.388 216.5,283.5C 216.896,280.279 218.229,277.612 220.5,275.5 Z"/></g>
<g><path style="opacity:1" fill="#ae99c0" d="M 99.5,277.5 C 98.222,279.823 97.222,282.323 96.5,285C 95.8699,286.31 94.8699,287.144 93.5,287.5C 94.9123,285.002 96.0789,282.336 97,279.5C 97.7083,278.619 98.5416,277.953 99.5,277.5 Z"/></g>
<g><path style="opacity:0.422" fill="#7b5c95" d="M 47.5,307.5 C 47.5,307.833 47.5,308.167 47.5,308.5C 43.8019,308.448 40.1352,308.114 36.5,307.5C 33.9837,307.245 31.6504,306.411 29.5,305C 27.0863,302.004 24.253,299.504 21,297.5C 21.9948,293.775 21.6615,290.108 20,286.5C 18.7919,284.521 17.9586,282.355 17.5,280C 17.1639,278.97 16.4972,278.47 15.5,278.5C 16.287,276.896 17.6203,276.229 19.5,276.5C 20.1768,281.718 21.1768,286.885 22.5,292C 22.4148,293.107 22.0814,294.107 21.5,295C 23.0602,297.659 25.3935,298.826 28.5,298.5C 28.281,299.675 28.6143,300.675 29.5,301.5C 34.6524,305.884 40.6524,307.884 47.5,307.5 Z"/></g>
<g><path style="opacity:1" fill="#b8a4ca" d="M 216.5,283.5 C 215.456,287.259 214.122,290.925 212.5,294.5C 210.967,297.588 208.967,300.255 206.5,302.5C 209.465,295.908 212.799,289.574 216.5,283.5 Z"/></g>
<g><path style="opacity:1" fill="#a67aca" d="M 66.5,290.5 C 69.1748,296.229 69.8415,302.229 68.5,308.5C 68.1667,308.5 67.8333,308.5 67.5,308.5C 63.1539,308.334 58.8206,308.501 54.5,309C 53.944,309.383 53.6107,309.883 53.5,310.5C 52.1667,310.5 50.8333,310.5 49.5,310.5C 49.5,309.167 48.8333,308.5 47.5,308.5C 47.5,308.167 47.5,307.833 47.5,307.5C 54.2022,307.664 60.8689,307.331 67.5,306.5C 67.1667,301.167 66.8333,295.833 66.5,290.5 Z"/></g>
<g><path style="opacity:1" fill="#2f2338" d="M 36.5,307.5 C 40.1352,308.114 43.8019,308.448 47.5,308.5C 48.8333,308.5 49.5,309.167 49.5,310.5C 44.9207,310.064 40.5874,309.064 36.5,307.5 Z"/></g>
<g><path style="opacity:1" fill="#4b385a" d="M 67.5,308.5 C 62.9714,309.273 58.3047,309.94 53.5,310.5C 53.6107,309.883 53.944,309.383 54.5,309C 58.8206,308.501 63.1539,308.334 67.5,308.5 Z"/></g>
<g><path style="opacity:1" fill="#9f89b2" d="M 206.5,302.5 C 205.537,305.744 204.204,308.744 202.5,311.5C 202.502,307.835 203.835,304.835 206.5,302.5 Z"/></g>
<g><path style="opacity:1" fill="#6d4e86" d="M 325.5,291.5 C 325.5,292.833 325.5,294.167 325.5,295.5C 324.838,299.466 324.505,303.466 324.5,307.5C 331.148,308.139 337.814,308.473 344.5,308.5C 340.03,309.486 335.363,309.819 330.5,309.5C 328.393,308.532 326.059,308.198 323.5,308.5C 323.216,302.583 323.883,296.916 325.5,291.5 Z"/></g>
<g><path style="opacity:0.838" fill="#010101" d="M 344.5,308.5 C 347.609,308.264 350.609,308.597 353.5,309.5C 353.949,320.103 352.116,330.437 348,340.5C 341.527,354.779 334.527,368.779 327,382.5C 323.756,386.771 319.922,387.438 315.5,384.5C 310.098,392.403 303.265,398.736 295,403.5C 294.25,402.874 293.416,402.374 292.5,402C 293.28,400.927 293.113,399.76 292,398.5C 285.52,402.301 279.02,406.135 272.5,410C 270.963,411.707 269.296,413.207 267.5,414.5C 267.337,412.143 267.503,409.81 268,407.5C 274.697,396.744 279.031,385.078 281,372.5C 283.818,357.609 285.651,342.609 286.5,327.5C 299.179,323.827 310.846,317.994 321.5,310C 324.482,309.502 327.482,309.335 330.5,309.5C 335.363,309.819 340.03,309.486 344.5,308.5 Z"/></g>
<g><path style="opacity:1" fill="#9f94a8" d="M 82.5,316.5 C 86.2515,316.94 89.2515,318.607 91.5,321.5C 87.7158,321.111 84.7158,319.444 82.5,316.5 Z"/></g>
<g><path style="opacity:1" fill="#ae9ac0" d="M 201.5,312.5 C 201.082,316.349 199.415,319.349 196.5,321.5C 197.41,318.008 199.076,315.008 201.5,312.5 Z"/></g>
<g><path style="opacity:1" fill="#887f90" d="M 91.5,321.5 C 94.9526,321.537 97.6192,322.871 99.5,325.5C 96.279,325.104 93.6123,323.771 91.5,321.5 Z"/></g>
<g><path style="opacity:0.973" fill="#d1d1d1" d="M 100.5,325.5 C 115.975,331.598 131.975,335.931 148.5,338.5C 151.273,339.657 154.273,340.324 157.5,340.5C 167.127,341.421 176.794,341.755 186.5,341.5C 198.505,341.667 210.505,341.5 222.5,341C 223.066,340.005 223.733,339.172 224.5,338.5C 224.5,339.167 224.5,339.833 224.5,340.5C 232.848,342.409 240.848,341.409 248.5,337.5C 249.167,337.5 249.833,337.5 250.5,337.5C 258.558,337.655 265.891,335.655 272.5,331.5C 277.15,330.17 281.817,328.837 286.5,327.5C 285.651,342.609 283.818,357.609 281,372.5C 279.031,385.078 274.697,396.744 268,407.5C 267.503,409.81 267.337,412.143 267.5,414.5C 251.54,433.961 233.207,450.795 212.5,465C 202.125,466.745 191.792,466.745 181.5,465C 169.519,459.179 159.519,451.012 151.5,440.5C 146.238,433.394 140.738,426.394 135,419.5C 129.965,414.297 124.798,409.297 119.5,404.5C 115.255,399.02 111.755,393.02 109,386.5C 102.923,366.652 100.09,346.318 100.5,325.5 Z"/></g>
<g><path style="opacity:1" fill="#aba4b1" d="M 272.5,331.5 C 265.891,335.655 258.558,337.655 250.5,337.5C 257.677,335.336 265.01,333.336 272.5,331.5 Z"/></g>
<g><path style="opacity:1" fill="#69537b" d="M 152.5,331.5 C 151.85,333.435 151.517,335.435 151.5,337.5C 154.216,337.386 156.216,338.386 157.5,340.5C 154.273,340.324 151.273,339.657 148.5,338.5C 149.079,335.669 150.412,333.336 152.5,331.5 Z"/></g>
<g><path style="opacity:1" fill="#a299aa" d="M 248.5,337.5 C 240.848,341.409 232.848,342.409 224.5,340.5C 228.846,340.666 233.179,340.499 237.5,340C 240.789,337.791 244.456,336.958 248.5,337.5 Z"/></g>
<g><path style="opacity:0.004" fill="#000000" d="M 78.5,388.5 C 78.8966,387.475 79.5632,387.308 80.5,388C 82.0074,388.837 82.5074,390.004 82,391.5C 80.9609,390.29 79.7942,389.29 78.5,388.5 Z"/></g>
<g><path style="opacity:0.004" fill="#000000" d="M 113.5,406.5 C 112.833,405.167 112.833,405.167 113.5,406.5 Z"/></g>
<g><path style="opacity:0.004" fill="#000000" d="M 113.5,406.5 C 114.492,406.328 115.158,406.662 115.5,407.5C 114.508,407.672 113.842,407.338 113.5,406.5 Z"/></g>
<g><path style="opacity:0.004" fill="#000000" d="M 115.5,407.5 C 117.355,407.272 118.188,407.939 118,409.5C 117.005,408.934 116.172,408.267 115.5,407.5 Z"/></g>
<g><path style="opacity:0.067" fill="#8f8f8f" d="M 119.5,404.5 C 124.798,409.297 129.965,414.297 135,419.5C 140.738,426.394 146.238,433.394 151.5,440.5C 141.199,428.865 130.533,417.531 119.5,406.5C 119.5,405.833 119.5,405.167 119.5,404.5 Z"/></g>
</svg>
